<?xml version="1.0" encoding="UTF-8" standalone="no"?>
<!-- Created with Inkscape (http://www.inkscape.org/) -->

<svg
   xmlns:dc="http://purl.org/dc/elements/1.1/"
   xmlns:cc="http://creativecommons.org/ns#"
   xmlns:rdf="http://www.w3.org/1999/02/22-rdf-syntax-ns#"
   xmlns:svg="http://www.w3.org/2000/svg"
   xmlns="http://www.w3.org/2000/svg"
   xmlns:sodipodi="http://sodipodi.sourceforge.net/DTD/sodipodi-0.dtd"
   xmlns:inkscape="http://www.inkscape.org/namespaces/inkscape"
   width="217"
   height="55"
   id="svg2987"
   version="1.1"
   inkscape:version="0.48.5 r10040"
   sodipodi:docname="logo.svg"
   inkscape:export-filename="/home/manuel/projects/dotted-line/resources/public/img/logo.png"
   inkscape:export-xdpi="123.41643"
   inkscape:export-ydpi="123.41643">
  <defs
     id="defs2989">
    <clipPath
       clipPathUnits="userSpaceOnUse"
       id="clipPath5308">
      <rect
         style="fill:#ffffff;fill-opacity:1"
         id="rect5310"
         width="64"
         height="68"
         x="24"
         y="74.770004" />
    </clipPath>
  </defs>
  <sodipodi:namedview
     id="base"
     pagecolor="#ffffff"
     bordercolor="#666666"
     borderopacity="1.0"
     inkscape:pageopacity="0.0"
     inkscape:pageshadow="2"
     inkscape:zoom="2.8"
     inkscape:cx="79.090394"
     inkscape:cy="42.556468"
     inkscape:document-units="px"
     inkscape:current-layer="layer1"
     showgrid="true"
     inkscape:window-width="1920"
     inkscape:window-height="1025"
     inkscape:window-x="0"
     inkscape:window-y="27"
     inkscape:window-maximized="1"
     showguides="true"
     inkscape:guide-bbox="true">
    <inkscape:grid
       type="xygrid"
       id="grid3189" />
  </sodipodi:namedview>
  <metadata
     id="metadata2992">
    <rdf:RDF>
      <cc:Work
         rdf:about="">
        <dc:format>image/svg+xml</dc:format>
        <dc:type
           rdf:resource="http://purl.org/dc/dcmitype/StillImage" />
        <dc:title></dc:title>
      </cc:Work>
    </rdf:RDF>
  </metadata>
  <g
     inkscape:label="Layer 1"
     inkscape:groupmode="layer"
     id="layer1"
     transform="translate(0,-997.3622)">
    <g
       id="g3006"
       transform="translate(0,0.32003203)">
      <text
         sodipodi:linespacing="125%"
         id="text3013"
         y="1030.3566"
         x="58.437855"
         style="font-size:40px;font-style:normal;font-variant:normal;font-weight:normal;font-stretch:normal;text-align:start;line-height:125%;letter-spacing:0px;word-spacing:0px;writing-mode:lr-tb;text-anchor:start;fill:#a6071b;fill-opacity:1;stroke:none;font-family:Source Sans Pro;-inkscape-font-specification:Source Sans Pro"
         xml:space="preserve"><tspan
           style="font-size:32px;font-style:normal;font-variant:normal;font-weight:bold;font-stretch:normal;text-align:start;line-height:125%;writing-mode:lr-tb;text-anchor:start;fill:#000000;fill-opacity:1;font-family:Alegreya;-inkscape-font-specification:Alegreya Bold"
           y="1030.3566"
           x="58.437855"
           id="tspan3015"
           sodipodi:role="line">dotted-line</tspan></text>
      <text
         sodipodi:linespacing="125%"
         id="text3013-6"
         y="1042.0878"
         x="61.095184"
         style="font-size:40px;font-style:normal;font-variant:normal;font-weight:normal;font-stretch:normal;text-align:start;line-height:125%;letter-spacing:0px;word-spacing:0px;writing-mode:lr-tb;text-anchor:start;fill:#a6071b;fill-opacity:1;stroke:none;font-family:Source Sans Pro;-inkscape-font-specification:Source Sans Pro"
         xml:space="preserve"><tspan
           style="font-size:32px;font-weight:bold;fill:#a6071b;fill-opacity:1;-inkscape-font-specification:Source Sans Pro Bold"
           y="1042.0878"
           x="61.095184"
           id="tspan3015-0"
           sodipodi:role="line">...............</tspan></text>
    </g>
    <g
       transform="matrix(0.75955407,0,0,0.75955407,-13.036068,941.75482)"
       id="surface3173"
       inkscape:export-filename="/home/manuel/desktop/1.png"
       inkscape:export-xdpi="600.02197"
       inkscape:export-ydpi="600.02197"
       clip-path="url(#clipPath5308)"
       style="fill:#a6071b;fill-opacity:1">
      <path
         inkscape:connector-curvature="0"
         style="fill:#a6071b;fill-opacity:1;fill-rule:nonzero;stroke:none"
         d="M 86.078125,103.02344 C 83.128906,88.867188 70.589844,78.234375 55.558594,78.234375 c -17.21875,0 -31.179688,13.960937 -31.179688,31.179685 0,5.98828 1.714844,11.5625 4.640625,16.3086 -0.171875,-1.60157 -0.285156,-3.22657 -0.285156,-4.89453 0,-2.52735 0.183594,-5.07032 0.554687,-7.625 0.371094,-2.55469 0.890626,-5.00782 1.5625,-7.35938 0.671876,-2.35547 1.484376,-4.55078 2.4375,-6.589844 0.953126,-2.035156 2.003907,-3.8125 3.160157,-5.324218 1.152343,-1.511719 2.402343,-2.699219 3.746093,-3.5625 1.34375,-0.863282 2.746094,-1.292969 4.199219,-1.292969 1.726563,0 3.429688,0.375 5.109375,1.125 1.679688,0.75 3.199219,1.925781 4.554688,3.527343 1.355468,1.601563 2.46875,3.652344 3.34375,6.152344 0.871094,2.496094 1.34375,5.492184 1.410156,8.988284 0,-2.21875 0.351562,-4.15625 1.058594,-5.8125 0.707031,-1.66016 1.660156,-3.04688 2.855468,-4.167971 1.199219,-1.121094 2.582032,-1.960938 4.152344,-2.523438 1.566406,-0.558593 3.214844,-0.839843 4.9375,-0.839843 1.414063,0 2.847656,0.191406 4.300782,0.574218 1.457031,0.378906 2.859374,0.953125 4.203124,1.710938 1.34375,0.761718 2.605469,1.714844 3.78125,2.859376 0.722657,0.69922 1.367188,1.50391 1.976563,2.35547 z m -43.210937,34.85547 c 3.882812,1.73437 8.167968,2.71875 12.691406,2.71875 5.246094,0 10.183594,-1.3125 14.523437,-3.60157 -3.046875,-0.21484 -6.050781,-0.51562 -8.984375,-0.97656 -3.71875,-0.58203 -7.265625,-1.42187 -10.636718,-2.51953 -3.371094,-1.09766 -6.390626,-2.55469 -9.054688,-4.36719 -1.097656,-1.59375 -1.648438,-3.03906 -1.648438,-4.33593 0,-1.63672 0.917969,-3.00391 2.757813,-4.10157 1.386719,1.03125 2.933594,1.91016 4.636719,2.64063 1.703125,0.72656 3.488281,1.33594 5.359375,1.82812 1.871093,0.49219 3.78125,0.89063 5.730469,1.19532 1.949218,0.30078 3.851562,0.54296 5.710937,0.72265 1.054687,0.10938 2.175781,0.20703 3.363281,0.28516 1.1875,0.0781 2.394532,0.15234 3.628906,0.21875 1.230469,0.0664 2.457032,0.11719 3.679688,0.14844 1.21875,0.0352 2.390625,0.0547 3.511719,0.0547 0.179687,0 0.425781,-0.008 0.738281,-0.0195 0.3125,-0.0117 0.640625,-0.0391 0.972656,-0.082 0.335938,-0.0469 0.644532,-0.11328 0.925782,-0.20312 0.09766,-0.0312 0.175781,-0.0742 0.253906,-0.11719 0.160156,-0.22266 0.328125,-0.44141 0.480468,-0.67188 0.398438,-1.25781 0.746094,-2.58984 1.03125,-4.01562 0.3125,-1.57031 0.46875,-3.13672 0.46875,-4.70703 0,-1.90235 -0.230468,-3.75 -0.6875,-5.54297 -0.460937,-1.79297 -1.1875,-3.38281 -2.183593,-4.77344 -0.996094,-1.38672 -2.273438,-2.50391 -3.832031,-3.34375 -1.558594,-0.83984 -3.445313,-1.25781 -5.664063,-1.25781 -1.296875,0 -2.378906,0.24609 -3.242187,0.73828 -0.863282,0.49219 -1.585938,1.13672 -2.167969,1.93359 -0.582031,0.79297 -1.046875,1.69922 -1.394531,2.71875 -0.347657,1.01953 -0.660157,2.0625 -0.941407,3.125 -0.277343,1.06641 -0.554687,2.10938 -0.820312,3.125 -0.269531,1.02344 -0.613281,1.92969 -1.027344,2.72266 -0.414063,0.79687 -0.929687,1.44141 -1.546875,1.93359 -0.613281,0.49219 -1.414062,0.73828 -2.402344,0.73828 -0.46875,0 -0.878906,-0.0273 -1.226562,-0.082 -0.347656,-0.0586 -0.632813,-0.1914 -0.855469,-0.40625 -0.226563,-0.21093 -0.394531,-0.52343 -0.503906,-0.9375 -0.113281,-0.41797 -0.167969,-0.98047 -0.167969,-1.69922 0,-0.96093 0.03906,-1.84375 0.117188,-2.63671 0.07812,-0.79688 0.117187,-1.65235 0.117187,-2.57032 0,-2.15234 -0.261719,-4.09375 -0.789063,-5.83203 -0.527343,-1.73437 -1.238281,-3.21484 -2.132812,-4.4375 -0.898438,-1.21875 -1.945312,-2.160155 -3.144531,-2.820311 -1.199219,-0.660157 -2.480469,-0.992188 -3.847657,-0.992188 -0.894531,0 -1.71875,0.257813 -2.46875,0.773438 -0.75,0.515625 -1.421874,1.238281 -2.015624,2.167971 -0.59375,0.92969 -1.117188,2.01953 -1.566407,3.27734 -0.445312,1.25391 -0.820312,2.6211 -1.125,4.09766 -0.300781,1.48047 -0.523437,3.03515 -0.671875,4.67187 -0.144531,1.63672 -0.21875,3.29297 -0.21875,4.97266 0,2.12891 0.117188,4.23047 0.355469,6.30078 0.234375,2.07422 0.59375,4 1.074219,5.78125 0.480468,1.78125 1.085937,3.36328 1.816406,4.73828 0.726562,1.37891 1.570312,2.42578 2.535156,3.14063 0.175782,0.0977 0.320313,0.1875 0.488282,0.28125"
         id="path4176" />
      <path
         inkscape:connector-curvature="0"
         style="fill:#a6071b;fill-opacity:1;fill-rule:nonzero;stroke:none"
         d="m 232.01953,97.273438 v 3.175782 h -0.004 v 8.57422 c 0,3.57422 1.94141,4.77734 4.6875,4.77734 1.38672,0 2.4336,-0.30859 3.35938,-0.83203 v -3.05469 c -0.74219,0.3711 -1.48047,0.5586 -2.3125,0.5586 -1.26563,0 -2.00391,-0.58594 -2.00391,-2.03516 v -7.98828 h 4.37891 V 97.242188 H 235.746 v -4.46875 h -3.73047 v 4.46875"
         id="path4180" />
      <path
         inkscape:connector-curvature="0"
         style="fill:#a6071b;fill-opacity:1;fill-rule:nonzero;stroke:none"
         d="m 256.25391,113.46094 v -9.64844 c 0,-4.347656 -2.34375,-6.878906 -7.15625,-6.878906 -2.65235,0 -4.40625,0.554687 -6.19532,1.359375 l 1.01563,2.988281 c 1.48047,-0.61719 2.83984,-1.01562 4.65625,-1.01562 2.58984,0 4.00781,1.23437 4.00781,3.48437 v 0.30859 c -1.26172,-0.40234 -2.52734,-0.67968 -4.5,-0.67968 -3.79297,0 -6.59766,1.72656 -6.59766,5.33593 v 0.0586 c 0,3.26953 2.71094,5.02734 5.79688,5.02734 2.46484,0 4.16016,-1.01953 5.26953,-2.34375 v 2.00391 z m -3.60938,-5.88672 c 0,2.03516 -1.84766,3.42187 -4.31641,3.42187 -1.75781,0 -3.14453,-0.86328 -3.14453,-2.40625 v -0.0625 c 0,-1.57031 1.38672,-2.52734 3.73047,-2.52734 1.44922,0 2.77344,0.27734 3.73047,0.64844 v 0.92578"
         id="path4182" />
    </g>
  </g>
</svg>
